<?xml version="1.0" encoding="UTF-8" standalone="no"?>
<!-- Created with Inkscape (http://www.inkscape.org/) -->

<svg
   xmlns:dc="http://purl.org/dc/elements/1.1/"
   xmlns:cc="http://creativecommons.org/ns#"
   xmlns:rdf="http://www.w3.org/1999/02/22-rdf-syntax-ns#"
   xmlns:svg="http://www.w3.org/2000/svg"
   xmlns="http://www.w3.org/2000/svg"
   xmlns:xlink="http://www.w3.org/1999/xlink"
   xmlns:sodipodi="http://sodipodi.sourceforge.net/DTD/sodipodi-0.dtd"
   xmlns:inkscape="http://www.inkscape.org/namespaces/inkscape"
   version="1.1"
   id="svg815"
   width="980"
   height="380"
   viewBox="0 0 980 380"
   sodipodi:docname="brood.svg"
   inkscape:version="0.92.5 (2060ec1f9f, 2020-04-08)">
  <metadata
     id="metadata821">
    <rdf:RDF>
      <cc:Work
         rdf:about="">
        <dc:format>image/svg+xml</dc:format>
        <dc:type
           rdf:resource="http://purl.org/dc/dcmitype/StillImage" />
        <dc:title></dc:title>
      </cc:Work>
    </rdf:RDF>
  </metadata>
  <defs
     id="defs819">
    <linearGradient
       inkscape:collect="always"
       id="linearGradient833">
      <stop
         style="stop-color:#e53c07;stop-opacity:1"
         offset="0"
         id="stop829" />
      <stop
         style="stop-color:#ffaa1b;stop-opacity:1"
         offset="1"
         id="stop831" />
    </linearGradient>
    <linearGradient
       inkscape:collect="always"
       xlink:href="#linearGradient833"
       id="linearGradient835"
       x1="518.54285"
       y1="169.77921"
       x2="518.71124"
       y2="256.60458"
       gradientUnits="userSpaceOnUse" />
  </defs>
  <sodipodi:namedview
     pagecolor="#ffffff"
     bordercolor="#666666"
     borderopacity="1"
     objecttolerance="10"
     gridtolerance="10"
     guidetolerance="10"
     inkscape:pageopacity="0"
     inkscape:pageshadow="2"
     inkscape:window-width="1366"
     inkscape:window-height="716"
     id="namedview817"
     showgrid="false"
     inkscape:zoom="0.10790816"
     inkscape:cx="163.20688"
     inkscape:cy="259.02348"
     inkscape:window-x="0"
     inkscape:window-y="0"
     inkscape:window-maximized="1"
     inkscape:current-layer="svg815" />
  <path
     inkscape:connector-curvature="0"
     id="path827"
     d="m 549.70804,384.72268 c -143.9388,-1.13779 -238.42079,-3.3127 -281,-6.46842 -162.91901,-12.07462 -244.308955,-39.2442 -269.827102,-90.07364 -4.057409,-8.08193 -5.004614,-16.32904 -4.400208,-38.31167 0.605406,-22.01899 1.688034,-27.59394 8.656638,-44.57699 7.374368,-17.97194 24.471095,-46.31476 40.113587,-66.5 C 73.864916,99.28737 125.32667,63.40821 175.15789,46.82637 202.16376,37.8399 242.5855,32.5896 267.76898,34.7973 c 16.50726,5.26875 23.23341,-3.39421 41.43906,-8.36492 0,-0.54794 16.61369,-7.83184 25.44741,-11.15684 9.48673,-3.5708 25.10583,-7.40615 34.54501,-8.48271 12.32047,-1.40518 51.97525,1.1034 65.50758,4.14404 19.2199,6.8659 27.36313,-4.57186 51.5,5.93269 0,-4.90956 56.42423,-9.97814 79.63044,-7.1532 25.79044,3.13952 55.92982,10.90859 60.65682,15.63559 l 42.09155,8.72787 c 2.5351,-2.53511 22.91793,-2.8899 45.21058,-0.78695 52.09991,4.91477 84.5491,13.61599 124.91061,33.49467 90.53646,44.59062 142.9536,125.02489 134.54791,206.46437 -2.73438,26.49249 -10.01521,41.61179 -28.7059,59.61041 -31.31839,30.15874 -73.53889,43.03379 -163.84201,49.96327 -14.69376,1.12753 -96.94332,2.95694 -123.5,2.7469 -8.525,-0.0674 -56.9,-0.44984 -107.5,-0.84981 z"
     style="fill:#000000"
     sodipodi:nodetypes="sssssssccssccsccssssscs" />
  <path
     style="fill:url(#linearGradient835);fill-opacity:1"
     d="m 549.70804,384.72268 c -143.9388,-1.13779 -238.42079,-3.3127 -281,-6.46842 -162.91901,-12.07462 -244.308949,-39.2442 -269.8270961,-90.07364 -4.057409,-8.08193 -5.0046142,-16.32904 -4.4002082,-38.31167 0.6054064,-22.01899 1.6880337,-27.59394 8.6566378,-44.57699 7.3743685,-17.97194 24.4710955,-46.31476 40.1135875,-66.5 30.613961,-39.504589 82.075709,-75.383749 131.906929,-91.965589 27.00587,-8.98647 67.42761,-14.23677 92.61109,-12.02907 18.07113,1.5842 18.661,1.82913 28.45095,11.81362 26.33925,26.86266 50.84378,69.212789 74.16779,128.181039 l 6.92186,17.5 -0.59199,-10.5 c -2.0744,-36.79343 -13.80689,-75.59844 -32.5942,-107.804779 -7.6484,-13.11134 -13.79975,-21.74634 -25.58397,-35.91368 -5.13226,-6.17015 -9.33138,-11.40865 -9.33138,-11.64112 0,-0.54794 16.61369,-7.83184 25.44741,-11.15684 9.48673,-3.5708 25.10583,-7.4061496 34.54501,-8.4827096 12.32047,-1.40518 51.97525,1.1034 65.50758,4.1440396 10.1991,2.29168 12.62407,4.4636 24.40139,21.85509 10.65615,15.73585 19.69708,31.22659 28.60188,49.00652 18.67162,37.281019 30.02422,68.996619 45.99426,128.493479 3.10023,11.55 6.11199,21.45 6.6928,22 2.60327,2.46516 -1.06578,-67.87389 -4.76922,-91.43024 -5.6505,-35.94102 -23.88625,-83.699879 -42.40974,-111.069759 -4.18097,-6.17771 -7.01137,-11.39432 -7.01137,-12.9224 0,-4.90956 56.42423,-9.9781396 79.63044,-7.1531996 25.79044,3.1395196 55.92982,10.9085896 60.65682,15.6355896 6.97844,6.97844 26.02404,45.05033 36.98875,73.94001 12.34456,32.525279 24.22654,78.681669 33.28629,129.303029 0.91573,5.11667 1.83459,9.13342 2.0419,8.92611 1.47398,-1.47399 3.60312,-30.30047 3.63608,-49.22914 0.0566,-32.47853 -2.90652,-57.84317 -10.29707,-88.14541 -4.87036,-19.969139 -9.25216,-32.699639 -17.61934,-51.189699 -3.56784,-7.88432 -6.24311,-14.57898 -5.94506,-14.87703 2.5351,-2.53511 22.91793,-2.8899 45.21058,-0.78695 52.09991,4.91477 84.5491,13.61599 124.91061,33.49467 90.53646,44.590619 142.95356,125.024889 134.54791,206.464369 -2.73438,26.49249 -10.01521,41.61179 -28.7059,59.61041 -31.31839,30.15874 -73.53889,43.03379 -163.84201,49.96327 -14.69376,1.12753 -96.94332,2.95694 -123.5,2.7469 -8.525,-0.0674 -56.9,-0.44984 -107.5,-0.84981 z"
     id="path825"
     inkscape:connector-curvature="0" />
</svg>
