<?xml version="1.0" encoding="UTF-8" standalone="no"?>
<!-- Created with Inkscape (http://www.inkscape.org/) -->

<svg
   width="144.47644mm"
   height="131.90175mm"
   viewBox="0 0 144.47644 131.90175"
   version="1.1"
   id="svg5"
   inkscape:version="1.1 (c68e22c387, 2021-05-23)"
   sodipodi:docname="life.svg"
   xmlns:inkscape="http://www.inkscape.org/namespaces/inkscape"
   xmlns:sodipodi="http://sodipodi.sourceforge.net/DTD/sodipodi-0.dtd"
   xmlns="http://www.w3.org/2000/svg"
   xmlns:svg="http://www.w3.org/2000/svg">
  <sodipodi:namedview
     id="namedview7"
     pagecolor="#ffffff"
     bordercolor="#666666"
     borderopacity="1.0"
     inkscape:pageshadow="2"
     inkscape:pageopacity="0.0"
     inkscape:pagecheckerboard="0"
     inkscape:document-units="mm"
     showgrid="false"
     fit-margin-top="0"
     fit-margin-left="0"
     fit-margin-right="0"
     fit-margin-bottom="0"
     inkscape:zoom="0.5209506"
     inkscape:cx="-95.018606"
     inkscape:cy="419.42557"
     inkscape:window-width="1920"
     inkscape:window-height="1001"
     inkscape:window-x="-7"
     inkscape:window-y="-7"
     inkscape:window-maximized="1"
     inkscape:current-layer="layer1" />
  <defs
     id="defs2" />
  <g
     inkscape:label="Laag 1"
     inkscape:groupmode="layer"
     id="layer1"
     transform="translate(-9.642918,-8.3479151)">
    <path
       style="fill:#ea5555;fill-opacity:1;stroke-width:0.135026"
       d="M 79.153742,137.7972 C 71.469862,130.56591 64.476492,124.30395 52.040463,113.51959 39.647299,102.77241 36.58394,100.03948 31.99889,95.639791 16.475572,80.744055 10.81146,69.303625 9.7627944,50.727095 c -0.513728,-9.10039 0.6001816,-15.57979 3.7973166,-22.08825 1.888436,-3.84432 4.157016,-6.9341 7.377493,-10.04806 5.671955,-5.48436 12.877066,-8.8837099 21.043383,-9.9282099 14.384115,-1.83979 28.132005,4.4557799 37.371215,17.1133799 0.63122,0.86476 1.43593,2.0348 1.78826,2.60008 0.35233,0.56528 0.68835,1.01014 0.74672,0.98857 0.0584,-0.0216 0.6534,-0.8595 1.32229,-1.86207 6.0299,-9.03796 14.58456,-15.42788 23.945098,-17.8858099 10.7264,-2.81659 22.33462,-0.84631 31.23535,5.3016099 2.51799,1.73923 5.76121,4.7542 7.66292,7.12361 3.13388,3.90464 5.68004,9.10634 6.90287,14.10229 1.03904,4.24506 1.37054,8.88733 1.04136,14.58286 -0.91884,15.89827 -5.08977,26.1393 -15.4531,37.94245 -0.74985,0.85404 -2.85337,3.04372 -4.67449,4.86595 -4.74552,4.748446 -8.23655,7.916975 -19.1092,17.343945 -15.074008,13.06968 -22.183908,19.41691 -30.151368,26.9171 -1.43328,1.34922 -2.66069,2.45313 -2.72759,2.45313 -0.0669,0 -1.2943,-1.10361 -2.72758,-2.45247 z"
       id="path982" />
    <path
       style="fill:#ffabab;fill-opacity:1;stroke-width:0.126846"
       d="M 79.309672,133.64457 C 72.065093,126.87596 65.471547,121.01466 53.746508,110.92033 42.061883,100.86079 39.173662,98.302718 34.850747,94.184537 20.214925,80.241883 14.87464,69.533452 13.885929,52.145514 c -0.484358,-8.518115 0.565868,-14.58294 3.580217,-20.674966 1.780471,-3.598347 3.919352,-6.490432 6.955709,-9.405149 5.347679,-5.133452 12.140861,-8.315299 19.840295,-9.292968 13.561749,-1.722075 26.523648,4.170683 35.234636,16.018405 0.595132,0.80943 1.353835,1.904606 1.686022,2.433718 0.332187,0.529111 0.648996,0.945507 0.704029,0.925317 0.05506,-0.02022 0.616044,-0.804506 1.246692,-1.742928 5.685161,-8.459679 13.750736,-14.440749 22.576121,-16.741412 10.11315,-2.636376 21.05771,-0.79216 29.44956,4.962394 2.37404,1.627948 5.43184,4.450009 7.22482,6.667816 2.95471,3.654807 5.3553,8.523684 6.50822,13.199976 0.97964,3.973446 1.29219,8.318687 0.98183,13.649797 -0.86631,14.881042 -4.79878,24.466815 -14.56962,35.514758 -0.70698,0.799395 -2.69024,2.848972 -4.40724,4.554609 -4.47421,4.444627 -7.76566,7.410417 -18.0167,16.234219 -14.212202,12.23344 -20.915612,18.17455 -28.427559,25.19485 -1.351337,1.26289 -2.508574,2.29617 -2.571649,2.29617 -0.06308,0 -1.220303,-1.033 -2.57164,-2.29555 z"
       id="path982-9" />
  </g>
</svg>
