<svg class="svg-icon" style="width: 1em; height: 1em;vertical-align: middle;fill: currentColor;overflow: hidden;" viewBox="0 0 1024 1024" version="1.1" xmlns="http://www.w3.org/2000/svg"><path d="M847.08352 15.99488c0-8.82688-7.168-15.99488-15.99488-15.99488l-641.35168 0c-8.82688 0-15.99488 7.168-15.99488 15.99488s7.12704 15.99488 15.99488 15.99488l641.37216 0c8.82688 0 15.9744-7.168 15.9744-15.99488zM814.41792 195.584l0-115.58912c0-8.82688-7.168-15.99488-15.99488-15.99488l-573.37856 0c-8.82688 0-15.99488 7.168-15.99488 15.99488l0 115.58912c0 159.232 121.856 267.20256 192.45056 316.35456-80.93696 55.74656-195.072 161.83296-195.072 316.47744l0 115.58912c0 8.82688 7.168 15.99488 15.99488 15.99488l576 0c8.82688 0 15.99488-7.168 15.99488-15.99488l0-114.64704c0-158.78144-123.61728-267.6736-195.03104-317.31712 80.93696-55.74656 195.03104-161.792 195.03104-316.45696zM510.4128 774.08256l153.92768 153.92768-307.83488 0 153.92768-153.92768zM581.84704 498.50368c-4.64896 2.90816-7.41376 8.02816-7.41376 13.49632s2.78528 10.58816 7.41376 13.49632c60.3136 38.23616 200.58112 144.42496 200.58112 303.84128l0 98.65216-73.216 0c-0.28672-0.34816-0.4096-0.79872-0.73728-1.1264l-182.04672-182.04672 0-24.82176c0-8.82688-7.168-15.99488-15.99488-15.99488s-15.99488 7.168-15.99488 15.99488l0 24.82176-182.04672 182.04672c-0.32768 0.32768-0.45056 0.77824-0.73728 1.1264l-73.216 0 0-99.59424c0-152.86272 125.66528-255.3856 200.58112-302.87872 4.64896-2.94912 7.41376-8.06912 7.41376-13.53728s-2.78528-10.58816-7.41376-13.49632c-59.51488-37.76512-200.58112-142.80704-200.58112-302.91968l0-99.57376 544.01024 0 0 99.57376c0 152.90368-125.66528 255.3856-200.58112 302.91968zM671.73376 287.10912l-314.04032 0c-5.7344 0-11.03872 3.072-13.88544 8.02816-2.84672 4.99712-2.82624 11.10016 0.06144 16.05632 37.9904 64.67584 93.45024 104.26368 152.1664 146.20672l5.07904 3.62496c2.78528 1.98656 6.02112 2.9696 9.3184 2.9696s6.53312-0.98304 9.3184-2.9696c8.37632-5.98016 16.83456-11.8784 25.27232-17.75616 52.44928-36.61824 106.68032-74.42432 140.51328-132.05504 2.90816-4.93568 2.94912-11.07968 0.1024-16.03584-2.88768-4.99712-8.15104-8.06912-13.88544-8.06912zM526.67392 416.99328c-5.40672 3.76832-10.81344 7.55712-16.22016 11.3664-48.16896-34.4064-90.7264-65.35168-123.06432-109.28128l254.17728 0c-30.1056 38.78912-71.49568 67.64544-114.87232 97.91488zM189.73696 1024l641.37216 0c8.82688 0 15.99488-7.168 15.99488-15.99488s-7.168-15.99488-15.99488-15.99488l-641.37216 0c-8.82688 0-15.99488 7.168-15.99488 15.99488s7.12704 15.99488 15.99488 15.99488zM510.4128 608.01024c-8.82688 0-15.99488 7.168-15.99488 15.99488l0 32.01024c0 8.82688 7.168 15.99488 15.99488 15.99488s15.99488-7.168 15.99488-15.99488l0-32.01024c0-8.82688-7.168-15.99488-15.99488-15.99488zM510.4128 512c-8.82688 0-15.99488 7.168-15.99488 15.99488l0 32.01024c0 8.82688 7.168 15.99488 15.99488 15.99488s15.99488-7.168 15.99488-15.99488l0-32.01024c0-8.82688-7.168-15.99488-15.99488-15.99488z"  /></svg>